<svg xmlns="http://www.w3.org/2000/svg" viewBox="0 0 128 128" fill="none">
  <!-- Speech bubble (source language) -->
  <rect x="8" y="16" width="56" height="40" rx="12" fill="#14B8A6"/>
  <polygon points="24,56 32,68 40,56" fill="#14B8A6"/>
  <!-- Text lines in bubble -->
  <rect x="18" y="28" width="28" height="3" rx="1.5" fill="#0D9488" opacity="0.6"/>
  <rect x="18" y="36" width="20" height="3" rx="1.5" fill="#0D9488" opacity="0.6"/>
  <rect x="18" y="44" width="24" height="3" rx="1.5" fill="#0D9488" opacity="0.6"/>

  <!-- Translation arrows (center) -->
  <path d="M68 44 L80 44 M76 38 L82 44 L76 50" stroke="#A1A1AA" stroke-width="3" stroke-linecap="round" stroke-linejoin="round"/>
  <path d="M80 56 L68 56 M72 50 L66 56 L72 62" stroke="#A1A1AA" stroke-width="3" stroke-linecap="round" stroke-linejoin="round"/>

  <!-- Speech bubble (target language) -->
  <rect x="64" y="64" width="56" height="40" rx="12" fill="#3B82F6"/>
  <polygon points="88,104 96,116 104,104" fill="#3B82F6"/>
  <!-- Text lines in bubble -->
  <rect x="74" y="76" width="28" height="3" rx="1.5" fill="#2563EB" opacity="0.6"/>
  <rect x="74" y="84" width="20" height="3" rx="1.5" fill="#2563EB" opacity="0.6"/>
  <rect x="74" y="92" width="24" height="3" rx="1.5" fill="#2563EB" opacity="0.6"/>
</svg>
